<svg width="50" height="50" viewBox="0 0 50 50" fill="none" xmlns="http://www.w3.org/2000/svg">
<circle cx="25" cy="25" r="25" fill="#3881E8"/>
<path d="M42.5 25.1244L14 37.2487L16 25.1244L14 13L42.5 25.1244Z" fill="white"/>
<path d="M42.5 25.1244L14 37.2487L16 25.1244L14 13L42.5 25.1244Z" fill="white"/>
<path d="M42.5 25.1244L14 37.2487L16 25.1244L14 13L42.5 25.1244Z" fill="white"/>
<path d="M32 25.125L14.5 29L16 25.125L15 21.5L32 25.125Z" fill="white"/>
<path d="M32 25.125L14.5 29L16 25.125L15 21.5L32 25.125Z" fill="white"/>
<path d="M32 25.125L14.5 29L16 25.125L15 21.5L32 25.125Z" fill="#3881E8"/>
</svg>
